<mxfile host="app.diagrams.net" agent="Mozilla/5.0 (Windows NT 10.0; Win64; x64) AppleWebKit/537.36 (KHTML, like Gecko) Chrome/131.0.0.0 Safari/537.36" version="24.8.6">
  <diagram name="Library Activity Diagram" id="1">
    <mxGraphModel dx="756" dy="410" grid="1" gridSize="10" guides="1" tooltips="1" connect="1" arrows="1" fold="1" page="1" pageScale="1" pageWidth="827" pageHeight="1169" math="0" shadow="0">
      <root>
        <mxCell id="0" />
        <mxCell id="1" parent="0" />
        <!-- Start -->
        <mxCell id="start" value="" style="ellipse;whiteSpace=wrap;html=1;fillColor=#A4A4A4;" vertex="1" parent="1">
          <mxGeometry x="50" y="50" width="40" height="40" as="geometry" />
        </mxCell>
        <!-- Process Nodes -->
        <mxCell id="reader_visits" value="Reader visits the library" style="rounded=1;whiteSpace=wrap;html=1;" vertex="1" parent="1">
          <mxGeometry x="150" y="50" width="180" height="40" as="geometry" />
        </mxCell>
        <mxCell id="check_card" value="Check library card" style="rhombus;whiteSpace=wrap;html=1;" vertex="1" parent="1">
          <mxGeometry x="150" y="120" width="100" height="60" as="geometry" />
        </mxCell>
        <mxCell id="issue_card" value="Issue library card" style="rounded=1;whiteSpace=wrap;html=1;" vertex="1" parent="1">
          <mxGeometry x="300" y="200" width="180" height="40" as="geometry" />
        </mxCell>
        <mxCell id="select_book" value="Select a book from catalog" style="rounded=1;whiteSpace=wrap;html=1;" vertex="1" parent="1">
          <mxGeometry x="150" y="200" width="180" height="40" as="geometry" />
        </mxCell>
        <mxCell id="check_availability" value="Check book availability" style="rhombus;whiteSpace=wrap;html=1;" vertex="1" parent="1">
          <mxGeometry x="150" y="270" width="100" height="60" as="geometry" />
        </mxCell>
        <mxCell id="register_issue" value="Register book issue" style="rounded=1;whiteSpace=wrap;html=1;" vertex="1" parent="1">
          <mxGeometry x="150" y="350" width="180" height="40" as="geometry" />
        </mxCell>
        <mxCell id="reader_receives" value="Reader receives the book" style="rounded=1;whiteSpace=wrap;html=1;" vertex="1" parent="1">
          <mxGeometry x="150" y="420" width="180" height="40" as="geometry" />
        </mxCell>
        <!-- End -->
        <mxCell id="end" value="" style="ellipse;whiteSpace=wrap;html=1;fillColor=#A4A4A4;" vertex="1" parent="1">
          <mxGeometry x="50" y="500" width="40" height="40" as="geometry" />
        </mxCell>
        <!-- Edges -->
        <mxCell id="edge1" style="edgeStyle=orthogonalEdgeStyle;rounded=0;orthogonalLoop=1;jettySize=auto;html=1;curved=0;" edge="1" parent="1" source="start" target="reader_visits">
          <mxGeometry relative="1" as="geometry" />
        </mxCell>
        <mxCell id="edge2" style="edgeStyle=orthogonalEdgeStyle;rounded=0;orthogonalLoop=1;jettySize=auto;html=1;curved=0;" edge="1" parent="1" source="reader_visits" target="check_card">
          <mxGeometry relative="1" as="geometry" />
        </mxCell>
        <mxCell id="edge3_yes" value="Yes" style="edgeStyle=orthogonalEdgeStyle;rounded=0;orthogonalLoop=1;jettySize=auto;html=1;curved=0;" edge="1" parent="1" source="check_card" target="select_book">
          <mxGeometry relative="1" as="geometry" />
        </mxCell>
        <mxCell id="edge3_no" value="No" style="edgeStyle=orthogonalEdgeStyle;rounded=0;orthogonalLoop=1;jettySize=auto;html=1;curved=0;" edge="1" parent="1" source="check_card" target="issue_card">
          <mxGeometry relative="1" as="geometry" />
        </mxCell>
        <mxCell id="edge4" style="edgeStyle=orthogonalEdgeStyle;rounded=0;orthogonalLoop=1;jettySize=auto;html=1;curved=0;" edge="1" parent="1" source="issue_card" target="select_book">
          <mxGeometry relative="1" as="geometry" />
        </mxCell>
        <mxCell id="edge5" style="edgeStyle=orthogonalEdgeStyle;rounded=0;orthogonalLoop=1;jettySize=auto;html=1;curved=0;" edge="1" parent="1" source="select_book" target="check_availability">
          <mxGeometry relative="1" as="geometry" />
        </mxCell>
        <mxCell id="edge6_yes" value="Yes" style="edgeStyle=orthogonalEdgeStyle;rounded=0;orthogonalLoop=1;jettySize=auto;html=1;curved=0;" edge="1" parent="1" source="check_availability" target="register_issue">
          <mxGeometry relative="1" as="geometry" />
        </mxCell>
        <mxCell id="edge6_no" value="No" style="edgeStyle=orthogonalEdgeStyle;rounded=0;orthogonalLoop=1;jettySize=auto;html=1;curved=0;" edge="1" parent="1" source="check_availability" target="select_book">
          <mxGeometry relative="1" as="geometry" />
        </mxCell>
        <mxCell id="edge7" style="edgeStyle=orthogonalEdgeStyle;rounded=0;orthogonalLoop=1;jettySize=auto;html=1;curved=0;" edge="1" parent="1" source="register_issue" target="reader_receives">
          <mxGeometry relative="1" as="geometry" />
        </mxCell>
        <mxCell id="edge8" style="edgeStyle=orthogonalEdgeStyle;rounded=0;orthogonalLoop=1;jettySize=auto;html=1;curved=0;" edge="1" parent="1" source="reader_receives" target="end">
          <mxGeometry relative="1" as="geometry" />
        </mxCell>
      </root>
    </mxGraphModel>
  </diagram>
</mxfile>
